# xmcd
#
# Track frame offsets:
#	150
#	12482
#	26763
#	38484
#	48800
#	62351
#	73916
#	88016
#	101152
#	116353
#	129754
#	144399
#	158900
#	172774
#	188022
#	199187
#	215019
#	227089
#	239048
#	250715
#	264966
#	277701
#	288687
#	303091
#
# Disc length: 4225 seconds
#
# Revision: 0
# Processed by: cddbd v1.5.1PL0 Copyright (c) Steve Scherf et al.
# Submitted via: dBpowerAMP V4.0
#
DISCID=46107f18
DTITLE=Muddy Waters - Mad Love
DYEAR=2004
DGENRE=Blues
TTITLE0=I Can't be Satisfied
TTITLE1=I Feel Like Going Home
TTITLE2=You're Gonna Miss Me
TTITLE3=Mean Red Spider
TTITLE4=Rollin' And Tumblin' pt. 1
TTITLE5=Rollin' And Tumblin' pt. 2
TTITLE6=Rollin' Stone
TTITLE7=Louisiana Blues
TTITLE8=Honey Bee
TTITLE9=She Moves Me
TTITLE10=Still a Fool
TTITLE11=Please Have Mercy
TTITLE12=Who's Gonna be Your Sweet Man
TTITLE13=Standing Around Crying
TTITLE14=Gone to Main Street
TTITLE15=Iodine in my Coffee
TTITLE16=Flood
TTITLE17=My Life is Ruined
TTITLE18=She's All Right
TTITLE19=Sad, Sad Day
TTITLE20=Turn Your Lamp Down Low (Baby Please Don't Go)
TTITLE21=Loving Man
TTITLE22=Blow Wind Blow
TTITLE23=Mad Love (I Wante You to Love Me)
EXTD=
EXTT0=
EXTT1=
EXTT2=
EXTT3=
EXTT4=
EXTT5=
EXTT6=
EXTT7=
EXTT8=
EXTT9=
EXTT10=
EXTT11=
EXTT12=
EXTT13=
EXTT14=
EXTT15=
EXTT16=
EXTT17=
EXTT18=
EXTT19=
EXTT20=
EXTT21=
EXTT22=
EXTT23=
PLAYORDER=
